<svg width="15" height="16" viewBox="0 0 15 16" fill="none" xmlns="http://www.w3.org/2000/svg">
<path d="M7.57391 0.574036C3.47298 0.574036 0.147812 3.9854 0.147812 8.18909C0.147812 11.554 2.27618 14.4051 5.22673 15.413C5.26811 15.4219 5.31036 15.4264 5.35271 15.4262C5.62787 15.4262 5.73396 15.224 5.73396 15.0483C5.73396 14.8659 5.72733 14.3886 5.72401 13.752C5.47837 13.8096 5.22707 13.8396 4.97477 13.8415C3.54591 13.8415 3.22102 12.7309 3.22102 12.7309C2.88287 11.8524 2.39553 11.617 2.39553 11.617C1.74906 11.1628 2.39222 11.1496 2.44194 11.1496H2.44526C3.19118 11.2159 3.58238 11.9386 3.58238 11.9386C3.95369 12.5884 4.45097 12.7707 4.89521 12.7707C5.18895 12.7649 5.47814 12.6971 5.7439 12.5718C5.81021 12.0812 6.00249 11.7463 6.21467 11.554C4.567 11.3618 2.83314 10.7087 2.83314 7.79127C2.83314 6.95915 3.12156 6.27953 3.59564 5.74909C3.51939 5.55681 3.26412 4.78105 3.66858 3.73344C3.72283 3.72046 3.77859 3.71488 3.83434 3.71686C4.10287 3.71686 4.70956 3.81964 5.71075 4.51583C6.92729 4.17546 8.2139 4.17546 9.43043 4.51583C10.4316 3.81964 11.0383 3.71686 11.3068 3.71686C11.3626 3.71488 11.4184 3.72046 11.4726 3.73344C11.8771 4.78105 11.6218 5.55681 11.5455 5.74909C12.0196 6.28284 12.308 6.96246 12.308 7.79127C12.308 10.7153 10.5709 11.3584 8.91657 11.5474C9.18179 11.7828 9.42048 12.2469 9.42048 12.9564C9.42048 13.9742 9.41054 14.7963 9.41054 15.045C9.41054 15.224 9.51331 15.4262 9.78847 15.4262C9.83302 15.4264 9.87746 15.422 9.92108 15.413C12.8749 14.4051 15 11.5507 15 8.18909C15 3.9854 11.6748 0.574036 7.57391 0.574036Z" fill="white"/>
</svg>
